solid OpenSCAD_Model
  facet normal -0 -0 -1
    outer loop
      vertex -2.95908 -0.493784 7.9
      vertex -2.95908 0.493784 7.9
      vertex -2.63842 -1.42784 7.9
    endloop
  endfacet
  facet normal 0 0 -1
    outer loop
      vertex -2.63842 -1.42784 7.9
      vertex -2.95908 0.493784 7.9
      vertex -2.63842 1.42784 7.9
    endloop
  endfacet
  facet normal 0 -0 -1
    outer loop
      vertex -2.63842 -1.42784 7.9
      vertex -2.63842 1.42784 7.9
      vertex -2.03185 2.20717 7.9
    endloop
  endfacet
  facet normal 0 0 -1
    outer loop
      vertex -2.63842 -1.42784 7.9
      vertex -2.03185 2.20717 7.9
      vertex -1.20509 2.74732 7.9
    endloop
  endfacet
  facet normal 0 0 -1
    outer loop
      vertex -2.63842 -1.42784 7.9
      vertex -1.20509 2.74732 7.9
      vertex -0.247738 2.98975 7.9
    endloop
  endfacet
  facet normal 0 0 -1
    outer loop
      vertex -2.63842 -1.42784 7.9
      vertex -0.247738 2.98975 7.9
      vertex 0.736456 2.9082 7.9
    endloop
  endfacet
  facet normal 0 0 -1
    outer loop
      vertex -2.63842 -1.42784 7.9
      vertex 0.736456 2.9082 7.9
      vertex 1.64084 2.5115 7.9
    endloop
  endfacet
  facet normal 0 0 -1
    outer loop
      vertex -2.63842 -1.42784 7.9
      vertex 1.64084 2.5115 7.9
      vertex 2.36742 1.84264 7.9
    endloop
  endfacet
  facet normal 0 0 -1
    outer loop
      vertex -2.63842 -1.42784 7.9
      vertex 2.36742 1.84264 7.9
      vertex 2.83745 0.974098 7.9
    endloop
  endfacet
  facet normal 0 0 -1
    outer loop
      vertex -2.63842 -1.42784 7.9
      vertex 2.83745 0.974098 7.9
      vertex 3 0 7.9
    endloop
  endfacet
  facet normal 0 0 -1
    outer loop
      vertex -2.63842 -1.42784 7.9
      vertex 3 0 7.9
      vertex 2.83745 -0.974098 7.9
    endloop
  endfacet
  facet normal -0 0 -1
    outer loop
      vertex -2.63842 -1.42784 7.9
      vertex 2.83745 -0.974098 7.9
      vertex 2.36742 -1.84264 7.9
    endloop
  endfacet
  facet normal 0 0 -1
    outer loop
      vertex -2.63842 -1.42784 7.9
      vertex 2.36742 -1.84264 7.9
      vertex 1.64084 -2.5115 7.9
    endloop
  endfacet
  facet normal 0 0 -1
    outer loop
      vertex -2.63842 -1.42784 7.9
      vertex 1.64084 -2.5115 7.9
      vertex 0.736456 -2.9082 7.9
    endloop
  endfacet
  facet normal 0 0 -1
    outer loop
      vertex -2.63842 -1.42784 7.9
      vertex 0.736456 -2.9082 7.9
      vertex -0.247738 -2.98975 7.9
    endloop
  endfacet
  facet normal 0 0 -1
    outer loop
      vertex -2.63842 -1.42784 7.9
      vertex -0.247738 -2.98975 7.9
      vertex -1.20509 -2.74732 7.9
    endloop
  endfacet
  facet normal 0 0 -1
    outer loop
      vertex -2.63842 -1.42784 7.9
      vertex -1.20509 -2.74732 7.9
      vertex -2.03185 -2.20717 7.9
    endloop
  endfacet
  facet normal -1 -0 -0
    outer loop
      vertex -2.95908 -0.493784 7.9
      vertex -2.95908 -0.493784 8.8
      vertex -2.95908 0.493784 7.9
    endloop
  endfacet
  facet normal -1 0 0
    outer loop
      vertex -2.95908 0.493784 7.9
      vertex -2.95908 -0.493784 8.8
      vertex -2.95908 0.493784 8.8
    endloop
  endfacet
  facet normal -0.945817 -0.3247 -0
    outer loop
      vertex -2.95908 -0.493784 7.9
      vertex -2.63842 -1.42784 7.9
      vertex -2.95908 -0.493784 8.8
    endloop
  endfacet
  facet normal -0.945817 -0.3247 0
    outer loop
      vertex -2.95908 -0.493784 8.8
      vertex -2.63842 -1.42784 7.9
      vertex -2.63842 -1.42784 8.8
    endloop
  endfacet
  facet normal -0.789141 -0.614212 -0
    outer loop
      vertex -2.63842 -1.42784 7.9
      vertex -2.03185 -2.20717 7.9
      vertex -2.63842 -1.42784 8.8
    endloop
  endfacet
  facet normal -0.789141 -0.614212 0
    outer loop
      vertex -2.63842 -1.42784 8.8
      vertex -2.03185 -2.20717 7.9
      vertex -2.03185 -2.20717 8.8
    endloop
  endfacet
  facet normal -0.546948 -0.837167 0
    outer loop
      vertex -2.03185 -2.20717 8.8
      vertex -2.03185 -2.20717 7.9
      vertex -1.20509 -2.74732 7.9
    endloop
  endfacet
  facet normal -0.546948 -0.837167 0
    outer loop
      vertex -1.20509 -2.74732 8.8
      vertex -2.03185 -2.20717 8.8
      vertex -1.20509 -2.74732 7.9
    endloop
  endfacet
  facet normal -0.245485 -0.9694 0
    outer loop
      vertex -1.20509 -2.74732 8.8
      vertex -1.20509 -2.74732 7.9
      vertex -0.247738 -2.98975 7.9
    endloop
  endfacet
  facet normal -0.245485 -0.9694 0
    outer loop
      vertex -0.247738 -2.98975 8.8
      vertex -1.20509 -2.74732 8.8
      vertex -0.247738 -2.98975 7.9
    endloop
  endfacet
  facet normal 0.0825787 -0.996585 0
    outer loop
      vertex -0.247738 -2.98975 8.8
      vertex -0.247738 -2.98975 7.9
      vertex 0.736456 -2.9082 7.9
    endloop
  endfacet
  facet normal 0.0825787 -0.996585 0
    outer loop
      vertex 0.736456 -2.9082 8.8
      vertex -0.247738 -2.98975 8.8
      vertex 0.736456 -2.9082 7.9
    endloop
  endfacet
  facet normal 0.401696 -0.915773 0
    outer loop
      vertex 0.736456 -2.9082 8.8
      vertex 0.736456 -2.9082 7.9
      vertex 1.64084 -2.5115 7.9
    endloop
  endfacet
  facet normal 0.401696 -0.915773 0
    outer loop
      vertex 1.64084 -2.5115 8.8
      vertex 0.736456 -2.9082 8.8
      vertex 1.64084 -2.5115 7.9
    endloop
  endfacet
  facet normal 0.677281 -0.735724 0
    outer loop
      vertex 1.64084 -2.5115 8.8
      vertex 1.64084 -2.5115 7.9
      vertex 2.36742 -1.84264 7.9
    endloop
  endfacet
  facet normal 0.677281 -0.735724 0
    outer loop
      vertex 2.36742 -1.84264 8.8
      vertex 1.64084 -2.5115 8.8
      vertex 2.36742 -1.84264 7.9
    endloop
  endfacet
  facet normal 0.879474 -0.475947 0
    outer loop
      vertex 2.36742 -1.84264 8.8
      vertex 2.36742 -1.84264 7.9
      vertex 2.83745 -0.974098 7.9
    endloop
  endfacet
  facet normal 0.879474 -0.475947 0
    outer loop
      vertex 2.83745 -0.974098 8.8
      vertex 2.36742 -1.84264 8.8
      vertex 2.83745 -0.974098 7.9
    endloop
  endfacet
  facet normal 0.986361 -0.164594 0
    outer loop
      vertex 2.83745 -0.974098 8.8
      vertex 2.83745 -0.974098 7.9
      vertex 3 0 7.9
    endloop
  endfacet
  facet normal 0.986361 -0.164594 0
    outer loop
      vertex 3 0 8.8
      vertex 2.83745 -0.974098 8.8
      vertex 3 0 7.9
    endloop
  endfacet
  facet normal 0.986361 0.164594 0
    outer loop
      vertex 3 0 7.9
      vertex 2.83745 0.974098 7.9
      vertex 2.83745 0.974098 8.8
    endloop
  endfacet
  facet normal 0.986361 0.164594 -0
    outer loop
      vertex 3 0 8.8
      vertex 3 0 7.9
      vertex 2.83745 0.974098 8.8
    endloop
  endfacet
  facet normal 0.879474 0.475947 0
    outer loop
      vertex 2.83745 0.974098 7.9
      vertex 2.36742 1.84264 7.9
      vertex 2.36742 1.84264 8.8
    endloop
  endfacet
  facet normal 0.879474 0.475947 -0
    outer loop
      vertex 2.83745 0.974098 8.8
      vertex 2.83745 0.974098 7.9
      vertex 2.36742 1.84264 8.8
    endloop
  endfacet
  facet normal 0.677281 0.735724 0
    outer loop
      vertex 1.64084 2.5115 7.9
      vertex 1.64084 2.5115 8.8
      vertex 2.36742 1.84264 7.9
    endloop
  endfacet
  facet normal 0.677281 0.735724 0
    outer loop
      vertex 2.36742 1.84264 7.9
      vertex 1.64084 2.5115 8.8
      vertex 2.36742 1.84264 8.8
    endloop
  endfacet
  facet normal 0.401696 0.915773 0
    outer loop
      vertex 0.736456 2.9082 7.9
      vertex 0.736456 2.9082 8.8
      vertex 1.64084 2.5115 7.9
    endloop
  endfacet
  facet normal 0.401696 0.915773 0
    outer loop
      vertex 1.64084 2.5115 7.9
      vertex 0.736456 2.9082 8.8
      vertex 1.64084 2.5115 8.8
    endloop
  endfacet
  facet normal 0.0825787 0.996585 0
    outer loop
      vertex -0.247738 2.98975 7.9
      vertex -0.247738 2.98975 8.8
      vertex 0.736456 2.9082 7.9
    endloop
  endfacet
  facet normal 0.0825787 0.996585 0
    outer loop
      vertex 0.736456 2.9082 7.9
      vertex -0.247738 2.98975 8.8
      vertex 0.736456 2.9082 8.8
    endloop
  endfacet
  facet normal -0.245485 0.9694 0
    outer loop
      vertex -1.20509 2.74732 7.9
      vertex -1.20509 2.74732 8.8
      vertex -0.247738 2.98975 7.9
    endloop
  endfacet
  facet normal -0.245485 0.9694 0
    outer loop
      vertex -0.247738 2.98975 7.9
      vertex -1.20509 2.74732 8.8
      vertex -0.247738 2.98975 8.8
    endloop
  endfacet
  facet normal -0.546948 0.837167 0
    outer loop
      vertex -2.03185 2.20717 7.9
      vertex -2.03185 2.20717 8.8
      vertex -1.20509 2.74732 7.9
    endloop
  endfacet
  facet normal -0.546948 0.837167 0
    outer loop
      vertex -1.20509 2.74732 7.9
      vertex -2.03185 2.20717 8.8
      vertex -1.20509 2.74732 8.8
    endloop
  endfacet
  facet normal -0.789141 0.614212 0
    outer loop
      vertex -2.63842 1.42784 7.9
      vertex -2.63842 1.42784 8.8
      vertex -2.03185 2.20717 7.9
    endloop
  endfacet
  facet normal -0.789141 0.614212 0
    outer loop
      vertex -2.03185 2.20717 7.9
      vertex -2.63842 1.42784 8.8
      vertex -2.03185 2.20717 8.8
    endloop
  endfacet
  facet normal -0.945817 0.3247 0
    outer loop
      vertex -2.95908 0.493784 7.9
      vertex -2.95908 0.493784 8.8
      vertex -2.63842 1.42784 7.9
    endloop
  endfacet
  facet normal -0.945817 0.3247 0
    outer loop
      vertex -2.63842 1.42784 7.9
      vertex -2.95908 0.493784 8.8
      vertex -2.63842 1.42784 8.8
    endloop
  endfacet
  facet normal 0 -0 1
    outer loop
      vertex -2.95908 0.493784 8.8
      vertex -2.95908 -0.493784 8.8
      vertex -2.63842 -1.42784 8.8
    endloop
  endfacet
  facet normal 0 0 1
    outer loop
      vertex -1.20509 -2.74732 8.8
      vertex -2.95908 0.493784 8.8
      vertex -2.03185 -2.20717 8.8
    endloop
  endfacet
  facet normal 0 0 1
    outer loop
      vertex -2.03185 -2.20717 8.8
      vertex -2.95908 0.493784 8.8
      vertex -2.63842 -1.42784 8.8
    endloop
  endfacet
  facet normal -0 -0 1
    outer loop
      vertex -1.82029 -1.32252 8.8
      vertex -2.95908 0.493784 8.8
      vertex -1.20509 -2.74732 8.8
    endloop
  endfacet
  facet normal 0 0 1
    outer loop
      vertex -2.20083 0.467801 8.8
      vertex -1.82029 1.32252 8.8
      vertex -2.95908 0.493784 8.8
    endloop
  endfacet
  facet normal 0 -0 1
    outer loop
      vertex 0.695288 -2.13988 8.8
      vertex -0.235189 -2.23767 8.8
      vertex 0.736456 -2.9082 8.8
    endloop
  endfacet
  facet normal 0 0 1
    outer loop
      vertex 1.50554 1.67208 8.8
      vertex 2.05548 0.915157 8.8
      vertex 2.36742 1.84264 8.8
    endloop
  endfacet
  facet normal 0 0 1
    outer loop
      vertex 0.695288 2.13988 8.8
      vertex 1.50554 1.67208 8.8
      vertex 1.64084 2.5115 8.8
    endloop
  endfacet
  facet normal 0 -0 1
    outer loop
      vertex -1.20509 2.74732 8.8
      vertex -2.95908 0.493784 8.8
      vertex -0.247738 2.98975 8.8
    endloop
  endfacet
  facet normal 0 -0 1
    outer loop
      vertex -2.03185 2.20717 8.8
      vertex -2.95908 0.493784 8.8
      vertex -1.20509 2.74732 8.8
    endloop
  endfacet
  facet normal 0 -0 1
    outer loop
      vertex -2.63842 1.42784 8.8
      vertex -2.95908 0.493784 8.8
      vertex -2.03185 2.20717 8.8
    endloop
  endfacet
  facet normal 0 -0 1
    outer loop
      vertex 2.25 0 8.8
      vertex 2.05548 -0.915157 8.8
      vertex 2.83745 -0.974098 8.8
    endloop
  endfacet
  facet normal 0 0 1
    outer loop
      vertex 2.05548 0.915157 8.8
      vertex 3 0 8.8
      vertex 2.83745 0.974098 8.8
    endloop
  endfacet
  facet normal 0 0 1
    outer loop
      vertex -0.247738 2.98975 8.8
      vertex -2.95908 0.493784 8.8
      vertex -1.82029 1.32252 8.8
    endloop
  endfacet
  facet normal 0 -0 1
    outer loop
      vertex -0.247738 2.98975 8.8
      vertex -1.125 1.94856 8.8
      vertex 0.736456 2.9082 8.8
    endloop
  endfacet
  facet normal 0 0 1
    outer loop
      vertex -0.247738 2.98975 8.8
      vertex -1.82029 1.32252 8.8
      vertex -1.125 1.94856 8.8
    endloop
  endfacet
  facet normal 0 -0 1
    outer loop
      vertex 0.736456 2.9082 8.8
      vertex -0.235189 2.23767 8.8
      vertex 1.64084 2.5115 8.8
    endloop
  endfacet
  facet normal 0 0 1
    outer loop
      vertex -1.125 1.94856 8.8
      vertex -0.235189 2.23767 8.8
      vertex 0.736456 2.9082 8.8
    endloop
  endfacet
  facet normal 0 0 1
    outer loop
      vertex -0.235189 2.23767 8.8
      vertex 0.695288 2.13988 8.8
      vertex 1.64084 2.5115 8.8
    endloop
  endfacet
  facet normal 0 0 1
    outer loop
      vertex 2.05548 0.915157 8.8
      vertex 2.25 0 8.8
      vertex 3 0 8.8
    endloop
  endfacet
  facet normal 0 -0 1
    outer loop
      vertex 1.64084 2.5115 8.8
      vertex 1.50554 1.67208 8.8
      vertex 2.36742 1.84264 8.8
    endloop
  endfacet
  facet normal 0 -0 1
    outer loop
      vertex 2.36742 1.84264 8.8
      vertex 2.05548 0.915157 8.8
      vertex 2.83745 0.974098 8.8
    endloop
  endfacet
  facet normal 0 0 1
    outer loop
      vertex 3 0 8.8
      vertex 2.25 0 8.8
      vertex 2.83745 -0.974098 8.8
    endloop
  endfacet
  facet normal -0 0 1
    outer loop
      vertex 2.83745 -0.974098 8.8
      vertex 2.05548 -0.915157 8.8
      vertex 2.36742 -1.84264 8.8
    endloop
  endfacet
  facet normal -0 0 1
    outer loop
      vertex 2.36742 -1.84264 8.8
      vertex 1.50554 -1.67208 8.8
      vertex 1.64084 -2.5115 8.8
    endloop
  endfacet
  facet normal -0 0 1
    outer loop
      vertex 1.64084 -2.5115 8.8
      vertex 0.695288 -2.13988 8.8
      vertex 0.736456 -2.9082 8.8
    endloop
  endfacet
  facet normal -0 0 1
    outer loop
      vertex 0.736456 -2.9082 8.8
      vertex -0.235189 -2.23767 8.8
      vertex -0.247738 -2.98975 8.8
    endloop
  endfacet
  facet normal 0 0 1
    outer loop
      vertex -0.247738 -2.98975 8.8
      vertex -1.125 -1.94856 8.8
      vertex -1.20509 -2.74732 8.8
    endloop
  endfacet
  facet normal 0 -0 1
    outer loop
      vertex 2.05548 -0.915157 8.8
      vertex 1.50554 -1.67208 8.8
      vertex 2.36742 -1.84264 8.8
    endloop
  endfacet
  facet normal -0 0 1
    outer loop
      vertex -1.125 -1.94856 8.8
      vertex -1.82029 -1.32252 8.8
      vertex -1.20509 -2.74732 8.8
    endloop
  endfacet
  facet normal 0 0 1
    outer loop
      vertex -1.82029 -1.32252 8.8
      vertex -2.20083 -0.467801 8.8
      vertex -2.95908 0.493784 8.8
    endloop
  endfacet
  facet normal 0 -0 1
    outer loop
      vertex 1.50554 -1.67208 8.8
      vertex 0.695288 -2.13988 8.8
      vertex 1.64084 -2.5115 8.8
    endloop
  endfacet
  facet normal -0 0 1
    outer loop
      vertex -0.235189 -2.23767 8.8
      vertex -1.125 -1.94856 8.8
      vertex -0.247738 -2.98975 8.8
    endloop
  endfacet
  facet normal 0 0 1
    outer loop
      vertex -2.20083 -0.467801 8.8
      vertex -2.20083 0.467801 8.8
      vertex -2.95908 0.493784 8.8
    endloop
  endfacet
  facet normal -1 -0 -0
    outer loop
      vertex -2.20083 -0.467801 8.8
      vertex -2.20083 -0.467801 12.1
      vertex -2.20083 0.467801 8.8
    endloop
  endfacet
  facet normal -1 0 0
    outer loop
      vertex -2.20083 0.467801 8.8
      vertex -2.20083 -0.467801 12.1
      vertex -2.20083 0.467801 12.1
    endloop
  endfacet
  facet normal -0.913545 -0.406737 -0
    outer loop
      vertex -2.20083 -0.467801 8.8
      vertex -1.82029 -1.32252 8.8
      vertex -2.20083 -0.467801 12.1
    endloop
  endfacet
  facet normal -0.913545 -0.406737 0
    outer loop
      vertex -2.1865 -0.5 12.1
      vertex -1.82029 -1.32252 8.8
      vertex -1.82029 -1.32252 16.225
    endloop
  endfacet
  facet normal -0.913545 -0.406737 5.56604e-016
    outer loop
      vertex -2.20083 -0.467801 12.1
      vertex -1.82029 -1.32252 8.8
      vertex -2.1865 -0.5 12.1
    endloop
  endfacet
  facet normal -0.913545 -0.406737 -0
    outer loop
      vertex -2.1865 -0.5 12.1
      vertex -1.82029 -1.32252 16.225
      vertex -2.1865 -0.5 16.225
    endloop
  endfacet
  facet normal -0.669131 -0.743145 0
    outer loop
      vertex -1.82029 -1.32252 16.225
      vertex -1.82029 -1.32252 8.8
      vertex -1.125 -1.94856 8.8
    endloop
  endfacet
  facet normal -0.669131 -0.743145 0
    outer loop
      vertex -1.125 -1.94856 16.225
      vertex -1.82029 -1.32252 16.225
      vertex -1.125 -1.94856 8.8
    endloop
  endfacet
  facet normal -0.309017 -0.951057 0
    outer loop
      vertex -1.125 -1.94856 16.225
      vertex -1.125 -1.94856 8.8
      vertex -0.235189 -2.23767 8.8
    endloop
  endfacet
  facet normal -0.309017 -0.951057 0
    outer loop
      vertex -0.235189 -2.23767 16.225
      vertex -1.125 -1.94856 16.225
      vertex -0.235189 -2.23767 8.8
    endloop
  endfacet
  facet normal 0.104528 -0.994522 0
    outer loop
      vertex -0.235189 -2.23767 16.225
      vertex -0.235189 -2.23767 8.8
      vertex 0.695288 -2.13988 8.8
    endloop
  endfacet
  facet normal 0.104528 -0.994522 0
    outer loop
      vertex 0.695288 -2.13988 16.225
      vertex -0.235189 -2.23767 16.225
      vertex 0.695288 -2.13988 8.8
    endloop
  endfacet
  facet normal 0.5 -0.866026 0
    outer loop
      vertex 0.695288 -2.13988 16.225
      vertex 0.695288 -2.13988 8.8
      vertex 1.50554 -1.67208 8.8
    endloop
  endfacet
  facet normal 0.5 -0.866026 0
    outer loop
      vertex 1.50554 -1.67208 16.225
      vertex 0.695288 -2.13988 16.225
      vertex 1.50554 -1.67208 8.8
    endloop
  endfacet
  facet normal 0.809017 -0.587785 0
    outer loop
      vertex 1.50554 -1.67208 16.225
      vertex 1.50554 -1.67208 8.8
      vertex 2.05548 -0.915157 8.8
    endloop
  endfacet
  facet normal 0.809017 -0.587785 0
    outer loop
      vertex 2.05548 -0.915157 16.225
      vertex 1.50554 -1.67208 16.225
      vertex 2.05548 -0.915157 8.8
    endloop
  endfacet
  facet normal 0.978148 -0.207912 1.05719e-016
    outer loop
      vertex 2.14372 -0.5 12.1
      vertex 2.05548 -0.915157 8.8
      vertex 2.25 0 8.8
    endloop
  endfacet
  facet normal 0.978148 -0.207912 0
    outer loop
      vertex 2.14372 -0.5 12.1
      vertex 2.14372 -0.5 16.225
      vertex 2.05548 -0.915157 16.225
    endloop
  endfacet
  facet normal 0.978148 -0.207912 0
    outer loop
      vertex 2.05548 -0.915157 16.225
      vertex 2.05548 -0.915157 8.8
      vertex 2.14372 -0.5 12.1
    endloop
  endfacet
  facet normal 0.978148 -0.207912 0
    outer loop
      vertex 2.25 0 12.1
      vertex 2.14372 -0.5 12.1
      vertex 2.25 0 8.8
    endloop
  endfacet
  facet normal 0.978148 0.207912 0
    outer loop
      vertex 2.14372 0.5 12.1
      vertex 2.05548 0.915157 8.8
      vertex 2.05548 0.915157 16.225
    endloop
  endfacet
  facet normal 0.978148 0.207912 0
    outer loop
      vertex 2.14372 0.5 12.1
      vertex 2.25 0 12.1
      vertex 2.25 0 8.8
    endloop
  endfacet
  facet normal 0.978148 0.207912 1.04423e-016
    outer loop
      vertex 2.25 0 8.8
      vertex 2.05548 0.915157 8.8
      vertex 2.14372 0.5 12.1
    endloop
  endfacet
  facet normal 0.978148 0.207912 -0
    outer loop
      vertex 2.14372 0.5 16.225
      vertex 2.14372 0.5 12.1
      vertex 2.05548 0.915157 16.225
    endloop
  endfacet
  facet normal 0.809017 0.587785 0
    outer loop
      vertex 2.05548 0.915157 8.8
      vertex 1.50554 1.67208 8.8
      vertex 1.50554 1.67208 16.225
    endloop
  endfacet
  facet normal 0.809017 0.587785 -0
    outer loop
      vertex 2.05548 0.915157 16.225
      vertex 2.05548 0.915157 8.8
      vertex 1.50554 1.67208 16.225
    endloop
  endfacet
  facet normal 0.5 0.866026 0
    outer loop
      vertex 0.695288 2.13988 8.8
      vertex 0.695288 2.13988 16.225
      vertex 1.50554 1.67208 8.8
    endloop
  endfacet
  facet normal 0.5 0.866026 0
    outer loop
      vertex 1.50554 1.67208 8.8
      vertex 0.695288 2.13988 16.225
      vertex 1.50554 1.67208 16.225
    endloop
  endfacet
  facet normal 0.104528 0.994522 0
    outer loop
      vertex -0.235189 2.23767 8.8
      vertex -0.235189 2.23767 16.225
      vertex 0.695288 2.13988 8.8
    endloop
  endfacet
  facet normal 0.104528 0.994522 0
    outer loop
      vertex 0.695288 2.13988 8.8
      vertex -0.235189 2.23767 16.225
      vertex 0.695288 2.13988 16.225
    endloop
  endfacet
  facet normal -0.309017 0.951057 0
    outer loop
      vertex -1.125 1.94856 8.8
      vertex -1.125 1.94856 16.225
      vertex -0.235189 2.23767 8.8
    endloop
  endfacet
  facet normal -0.309017 0.951057 0
    outer loop
      vertex -0.235189 2.23767 8.8
      vertex -1.125 1.94856 16.225
      vertex -0.235189 2.23767 16.225
    endloop
  endfacet
  facet normal -0.669131 0.743145 0
    outer loop
      vertex -1.82029 1.32252 8.8
      vertex -1.82029 1.32252 16.225
      vertex -1.125 1.94856 8.8
    endloop
  endfacet
  facet normal -0.669131 0.743145 0
    outer loop
      vertex -1.125 1.94856 8.8
      vertex -1.82029 1.32252 16.225
      vertex -1.125 1.94856 16.225
    endloop
  endfacet
  facet normal -0.913545 0.406737 0
    outer loop
      vertex -2.20083 0.467801 8.8
      vertex -2.20083 0.467801 12.1
      vertex -1.82029 1.32252 8.8
    endloop
  endfacet
  facet normal -0.913545 0.406737 6.54903e-016
    outer loop
      vertex -1.82029 1.32252 8.8
      vertex -2.20083 0.467801 12.1
      vertex -2.1865 0.5 12.1
    endloop
  endfacet
  facet normal -0.913545 0.406737 0
    outer loop
      vertex -1.82029 1.32252 8.8
      vertex -2.1865 0.5 12.1
      vertex -2.1865 0.5 16.225
    endloop
  endfacet
  facet normal -0.913545 0.406737 0
    outer loop
      vertex -1.82029 1.32252 8.8
      vertex -2.1865 0.5 16.225
      vertex -1.82029 1.32252 16.225
    endloop
  endfacet
  facet normal 0 0 1
    outer loop
      vertex -2.1865 -0.5 12.1
      vertex -1.74103 -0.5 12.1
      vertex -1.875 0 12.1
    endloop
  endfacet
  facet normal 0 0 1
    outer loop
      vertex -1.74103 0.5 12.1
      vertex -2.1865 -0.5 12.1
      vertex -1.875 0 12.1
    endloop
  endfacet
  facet normal 0 0 1
    outer loop
      vertex -1.74103 0.5 12.1
      vertex -2.1865 0.5 12.1
      vertex -2.1865 -0.5 12.1
    endloop
  endfacet
  facet normal 0 0 1
    outer loop
      vertex -2.1865 0.5 12.1
      vertex -2.20083 0.467801 12.1
      vertex -2.1865 -0.5 12.1
    endloop
  endfacet
  facet normal 0 -0 1
    outer loop
      vertex -2.20083 0.467801 12.1
      vertex -2.20083 -0.467801 12.1
      vertex -2.1865 -0.5 12.1
    endloop
  endfacet
  facet normal 0 1 0
    outer loop
      vertex -2.40054 -0.5 16.225
      vertex -2.40054 -0.5 16.6
      vertex -2.1865 -0.5 16.225
    endloop
  endfacet
  facet normal 0 1 0
    outer loop
      vertex -1.74103 -0.5 16.6
      vertex -1.74103 -0.5 12.1
      vertex -2.1865 -0.5 16.225
    endloop
  endfacet
  facet normal 0 1 0
    outer loop
      vertex -1.74103 -0.5 16.6
      vertex -2.1865 -0.5 16.225
      vertex -2.40054 -0.5 16.6
    endloop
  endfacet
  facet normal 0 1 -0
    outer loop
      vertex -2.1865 -0.5 16.225
      vertex -1.74103 -0.5 12.1
      vertex -2.1865 -0.5 12.1
    endloop
  endfacet
  facet normal 0 0 -1
    outer loop
      vertex -2.40054 -0.5 16.225
      vertex -2.1865 -0.5 16.225
      vertex -2.3097 -0.956709 16.225
    endloop
  endfacet
  facet normal -0 0 -1
    outer loop
      vertex -2.3097 -0.956709 16.225
      vertex -2.1865 -0.5 16.225
      vertex -1.82029 -1.32252 16.225
    endloop
  endfacet
  facet normal 0 0 -1
    outer loop
      vertex -2.3097 -0.956709 16.225
      vertex -1.82029 -1.32252 16.225
      vertex -1.125 -1.94856 16.225
    endloop
  endfacet
  facet normal 0 0 -1
    outer loop
      vertex 2.05548 -0.915157 16.225
      vertex 2.14372 -0.5 16.225
      vertex 2.40054 -0.5 16.225
    endloop
  endfacet
  facet normal -0 0 -1
    outer loop
      vertex 2.05548 -0.915157 16.225
      vertex 2.40054 -0.5 16.225
      vertex 1.50554 -1.67208 16.225
    endloop
  endfacet
  facet normal 0 0 -1
    outer loop
      vertex 1.50554 -1.67208 16.225
      vertex 2.40054 -0.5 16.225
      vertex 2.3097 -0.956709 16.225
    endloop
  endfacet
  facet normal -0 0 -1
    outer loop
      vertex 1.50554 -1.67208 16.225
      vertex 2.3097 -0.956709 16.225
      vertex 1.76777 -1.76777 16.225
    endloop
  endfacet
  facet normal 0 0 -1
    outer loop
      vertex 1.50554 -1.67208 16.225
      vertex 1.76777 -1.76777 16.225
      vertex 0.695288 -2.13988 16.225
    endloop
  endfacet
  facet normal -0 0 -1
    outer loop
      vertex 0.695288 -2.13988 16.225
      vertex 1.76777 -1.76777 16.225
      vertex 0.956709 -2.3097 16.225
    endloop
  endfacet
  facet normal 0 0 -1
    outer loop
      vertex 0.695288 -2.13988 16.225
      vertex 0.956709 -2.3097 16.225
      vertex -0.235189 -2.23767 16.225
    endloop
  endfacet
  facet normal 0 0 -1
    outer loop
      vertex -0.235189 -2.23767 16.225
      vertex 0.956709 -2.3097 16.225
      vertex 0 -2.5 16.225
    endloop
  endfacet
  facet normal 0 0 -1
    outer loop
      vertex -0.235189 -2.23767 16.225
      vertex 0 -2.5 16.225
      vertex -1.125 -1.94856 16.225
    endloop
  endfacet
  facet normal 0 0 -1
    outer loop
      vertex -1.125 -1.94856 16.225
      vertex 0 -2.5 16.225
      vertex -0.956709 -2.3097 16.225
    endloop
  endfacet
  facet normal 0 0 -1
    outer loop
      vertex -1.125 -1.94856 16.225
      vertex -0.956709 -2.3097 16.225
      vertex -2.3097 -0.956709 16.225
    endloop
  endfacet
  facet normal 0 0 -1
    outer loop
      vertex -2.3097 -0.956709 16.225
      vertex -0.956709 -2.3097 16.225
      vertex -1.76777 -1.76777 16.225
    endloop
  endfacet
  facet normal 0 1 0
    outer loop
      vertex 2.40054 -0.5 16.6
      vertex 2.40054 -0.5 16.225
      vertex 1.74103 -0.5 16.6
    endloop
  endfacet
  facet normal 0 1 0
    outer loop
      vertex 1.74103 -0.5 16.6
      vertex 2.40054 -0.5 16.225
      vertex 2.14372 -0.5 16.225
    endloop
  endfacet
  facet normal 0 1 0
    outer loop
      vertex 1.74103 -0.5 16.6
      vertex 2.14372 -0.5 16.225
      vertex 2.14372 -0.5 12.1
    endloop
  endfacet
  facet normal 0 1 -0
    outer loop
      vertex 1.74103 -0.5 16.6
      vertex 2.14372 -0.5 12.1
      vertex 1.74103 -0.5 12.1
    endloop
  endfacet
  facet normal 0 0 1
    outer loop
      vertex 2.14372 -0.5 12.1
      vertex 2.25 0 12.1
      vertex 2.14372 0.5 12.1
    endloop
  endfacet
  facet normal 0 0 1
    outer loop
      vertex 1.875 0 12.1
      vertex 2.14372 -0.5 12.1
      vertex 1.74103 0.5 12.1
    endloop
  endfacet
  facet normal 0 0 1
    outer loop
      vertex 1.74103 0.5 12.1
      vertex 2.14372 -0.5 12.1
      vertex 2.14372 0.5 12.1
    endloop
  endfacet
  facet normal 0 0 1
    outer loop
      vertex 1.74103 -0.5 12.1
      vertex 2.14372 -0.5 12.1
      vertex 1.875 0 12.1
    endloop
  endfacet
  facet normal 0 -1 0
    outer loop
      vertex 2.40054 0.5 16.6
      vertex 2.14372 0.5 16.225
      vertex 2.40054 0.5 16.225
    endloop
  endfacet
  facet normal 0 -1 0
    outer loop
      vertex 1.74103 0.5 16.6
      vertex 2.14372 0.5 16.225
      vertex 2.40054 0.5 16.6
    endloop
  endfacet
  facet normal 0 -1 0
    outer loop
      vertex 2.14372 0.5 12.1
      vertex 2.14372 0.5 16.225
      vertex 1.74103 0.5 16.6
    endloop
  endfacet
  facet normal -0 -1 -0
    outer loop
      vertex 1.74103 0.5 12.1
      vertex 2.14372 0.5 12.1
      vertex 1.74103 0.5 16.6
    endloop
  endfacet
  facet normal -0 0 -1
    outer loop
      vertex -2.40054 0.5 16.225
      vertex -2.3097 0.956709 16.225
      vertex -2.1865 0.5 16.225
    endloop
  endfacet
  facet normal 0 -0 -1
    outer loop
      vertex -2.1865 0.5 16.225
      vertex -2.3097 0.956709 16.225
      vertex -1.76777 1.76777 16.225
    endloop
  endfacet
  facet normal 0 0 -1
    outer loop
      vertex -1.82029 1.32252 16.225
      vertex -1.76777 1.76777 16.225
      vertex -0.956709 2.3097 16.225
    endloop
  endfacet
  facet normal 0 0 -1
    outer loop
      vertex -1.125 1.94856 16.225
      vertex -0.956709 2.3097 16.225
      vertex 0 2.5 16.225
    endloop
  endfacet
  facet normal 0 0 -1
    outer loop
      vertex -0.235189 2.23767 16.225
      vertex 0 2.5 16.225
      vertex 0.956709 2.3097 16.225
    endloop
  endfacet
  facet normal -0 0 -1
    outer loop
      vertex 0.695288 2.13988 16.225
      vertex 0.956709 2.3097 16.225
      vertex 1.76777 1.76777 16.225
    endloop
  endfacet
  facet normal -0 0 -1
    outer loop
      vertex 1.50554 1.67208 16.225
      vertex 1.76777 1.76777 16.225
      vertex 2.3097 0.956709 16.225
    endloop
  endfacet
  facet normal -0 0 -1
    outer loop
      vertex 2.14372 0.5 16.225
      vertex 2.3097 0.956709 16.225
      vertex 2.40054 0.5 16.225
    endloop
  endfacet
  facet normal -0 0 -1
    outer loop
      vertex 2.05548 0.915157 16.225
      vertex 2.3097 0.956709 16.225
      vertex 2.14372 0.5 16.225
    endloop
  endfacet
  facet normal 0 0 -1
    outer loop
      vertex 0.695288 2.13988 16.225
      vertex 1.76777 1.76777 16.225
      vertex 1.50554 1.67208 16.225
    endloop
  endfacet
  facet normal -0 0 -1
    outer loop
      vertex -0.235189 2.23767 16.225
      vertex 0.956709 2.3097 16.225
      vertex 0.695288 2.13988 16.225
    endloop
  endfacet
  facet normal 0 0 -1
    outer loop
      vertex -1.125 1.94856 16.225
      vertex 0 2.5 16.225
      vertex -0.235189 2.23767 16.225
    endloop
  endfacet
  facet normal 0 0 -1
    outer loop
      vertex -1.82029 1.32252 16.225
      vertex -0.956709 2.3097 16.225
      vertex -1.125 1.94856 16.225
    endloop
  endfacet
  facet normal 0 0 -1
    outer loop
      vertex -2.1865 0.5 16.225
      vertex -1.76777 1.76777 16.225
      vertex -1.82029 1.32252 16.225
    endloop
  endfacet
  facet normal 0 0 -1
    outer loop
      vertex 1.50554 1.67208 16.225
      vertex 2.3097 0.956709 16.225
      vertex 2.05548 0.915157 16.225
    endloop
  endfacet
  facet normal 0 -1 0
    outer loop
      vertex -2.1865 0.5 16.225
      vertex -2.1865 0.5 12.1
      vertex -1.74103 0.5 12.1
    endloop
  endfacet
  facet normal 0 -1 0
    outer loop
      vertex -2.40054 0.5 16.6
      vertex -2.1865 0.5 16.225
      vertex -1.74103 0.5 16.6
    endloop
  endfacet
  facet normal 0 -1 0
    outer loop
      vertex -1.74103 0.5 16.6
      vertex -2.1865 0.5 16.225
      vertex -1.74103 0.5 12.1
    endloop
  endfacet
  facet normal -0 -1 -0
    outer loop
      vertex -2.40054 0.5 16.225
      vertex -2.1865 0.5 16.225
      vertex -2.40054 0.5 16.6
    endloop
  endfacet
  facet normal 0.965926 -0.258819 0
    outer loop
      vertex -1.6238 0.9375 8.8
      vertex -1.6238 0.9375 16.6
      vertex -1.74103 0.5 16.6
    endloop
  endfacet
  facet normal 0.965926 -0.258819 -1.09813e-016
    outer loop
      vertex -1.875 0 12.1
      vertex -1.6238 0.9375 8.8
      vertex -1.74103 0.5 12.1
    endloop
  endfacet
  facet normal 0.965926 -0.258819 0
    outer loop
      vertex -1.74103 0.5 12.1
      vertex -1.6238 0.9375 8.8
      vertex -1.74103 0.5 16.6
    endloop
  endfacet
  facet normal 0.965926 -0.258819 0
    outer loop
      vertex -1.875 0 8.8
      vertex -1.6238 0.9375 8.8
      vertex -1.875 0 12.1
    endloop
  endfacet
  facet normal 0.965926 0.258819 0
    outer loop
      vertex -1.6238 -0.9375 16.6
      vertex -1.74103 -0.5 12.1
      vertex -1.74103 -0.5 16.6
    endloop
  endfacet
  facet normal 0.965926 0.258819 0
    outer loop
      vertex -1.6238 -0.9375 8.8
      vertex -1.74103 -0.5 12.1
      vertex -1.6238 -0.9375 16.6
    endloop
  endfacet
  facet normal 0.965926 0.258819 -1.09813e-016
    outer loop
      vertex -1.875 0 12.1
      vertex -1.74103 -0.5 12.1
      vertex -1.6238 -0.9375 8.8
    endloop
  endfacet
  facet normal 0.965926 0.258819 0
    outer loop
      vertex -1.875 0 8.8
      vertex -1.875 0 12.1
      vertex -1.6238 -0.9375 8.8
    endloop
  endfacet
  facet normal 0 0 1
    outer loop
      vertex -1.74103 -0.5 16.6
      vertex -2.40054 -0.5 16.6
      vertex -2.3097 -0.956709 16.6
    endloop
  endfacet
  facet normal -0 0 1
    outer loop
      vertex -1.6238 -0.9375 16.6
      vertex -1.74103 -0.5 16.6
      vertex -1.76777 -1.76777 16.6
    endloop
  endfacet
  facet normal 0 0 1
    outer loop
      vertex -1.76777 -1.76777 16.6
      vertex -1.74103 -0.5 16.6
      vertex -2.3097 -0.956709 16.6
    endloop
  endfacet
  facet normal -0 0 1
    outer loop
      vertex -0.9375 -1.6238 16.6
      vertex -1.6238 -0.9375 16.6
      vertex -0.956709 -2.3097 16.6
    endloop
  endfacet
  facet normal -0 0 1
    outer loop
      vertex 0 -1.875 16.6
      vertex -0.9375 -1.6238 16.6
      vertex 0 -2.5 16.6
    endloop
  endfacet
  facet normal 0 -0 1
    outer loop
      vertex 0.9375 -1.6238 16.6
      vertex 0 -1.875 16.6
      vertex 0.956709 -2.3097 16.6
    endloop
  endfacet
  facet normal 0 -0 1
    outer loop
      vertex 1.6238 -0.9375 16.6
      vertex 0.9375 -1.6238 16.6
      vertex 1.76777 -1.76777 16.6
    endloop
  endfacet
  facet normal 0 0 1
    outer loop
      vertex 2.40054 -0.5 16.6
      vertex 1.74103 -0.5 16.6
      vertex 2.3097 -0.956709 16.6
    endloop
  endfacet
  facet normal -0 0 1
    outer loop
      vertex 2.3097 -0.956709 16.6
      vertex 1.6238 -0.9375 16.6
      vertex 1.76777 -1.76777 16.6
    endloop
  endfacet
  facet normal -0 0 1
    outer loop
      vertex 1.76777 -1.76777 16.6
      vertex 0.9375 -1.6238 16.6
      vertex 0.956709 -2.3097 16.6
    endloop
  endfacet
  facet normal -0 0 1
    outer loop
      vertex 0.956709 -2.3097 16.6
      vertex 0 -1.875 16.6
      vertex 0 -2.5 16.6
    endloop
  endfacet
  facet normal 0 0 1
    outer loop
      vertex 0 -2.5 16.6
      vertex -0.9375 -1.6238 16.6
      vertex -0.956709 -2.3097 16.6
    endloop
  endfacet
  facet normal 0 0 1
    outer loop
      vertex -0.956709 -2.3097 16.6
      vertex -1.6238 -0.9375 16.6
      vertex -1.76777 -1.76777 16.6
    endloop
  endfacet
  facet normal 0 -0 1
    outer loop
      vertex 1.74103 -0.5 16.6
      vertex 1.6238 -0.9375 16.6
      vertex 2.3097 -0.956709 16.6
    endloop
  endfacet
  facet normal -0.980785 -0.19509 -0
    outer loop
      vertex -2.40054 -0.5 16.225
      vertex -2.3097 -0.956709 16.225
      vertex -2.40054 -0.5 16.6
    endloop
  endfacet
  facet normal -0.980785 -0.19509 0
    outer loop
      vertex -2.40054 -0.5 16.6
      vertex -2.3097 -0.956709 16.225
      vertex -2.3097 -0.956709 16.6
    endloop
  endfacet
  facet normal -0.831469 -0.55557 -0
    outer loop
      vertex -2.3097 -0.956709 16.225
      vertex -1.76777 -1.76777 16.225
      vertex -2.3097 -0.956709 16.6
    endloop
  endfacet
  facet normal -0.831469 -0.55557 0
    outer loop
      vertex -2.3097 -0.956709 16.6
      vertex -1.76777 -1.76777 16.225
      vertex -1.76777 -1.76777 16.6
    endloop
  endfacet
  facet normal -0.55557 -0.831469 0
    outer loop
      vertex -1.76777 -1.76777 16.6
      vertex -1.76777 -1.76777 16.225
      vertex -0.956709 -2.3097 16.225
    endloop
  endfacet
  facet normal -0.55557 -0.831469 0
    outer loop
      vertex -0.956709 -2.3097 16.6
      vertex -1.76777 -1.76777 16.6
      vertex -0.956709 -2.3097 16.225
    endloop
  endfacet
  facet normal -0.19509 -0.980785 0
    outer loop
      vertex -0.956709 -2.3097 16.6
      vertex -0.956709 -2.3097 16.225
      vertex 0 -2.5 16.225
    endloop
  endfacet
  facet normal -0.19509 -0.980785 0
    outer loop
      vertex 0 -2.5 16.6
      vertex -0.956709 -2.3097 16.6
      vertex 0 -2.5 16.225
    endloop
  endfacet
  facet normal 0.19509 -0.980785 0
    outer loop
      vertex 0 -2.5 16.6
      vertex 0 -2.5 16.225
      vertex 0.956709 -2.3097 16.225
    endloop
  endfacet
  facet normal 0.19509 -0.980785 0
    outer loop
      vertex 0.956709 -2.3097 16.6
      vertex 0 -2.5 16.6
      vertex 0.956709 -2.3097 16.225
    endloop
  endfacet
  facet normal 0.55557 -0.831469 0
    outer loop
      vertex 0.956709 -2.3097 16.6
      vertex 0.956709 -2.3097 16.225
      vertex 1.76777 -1.76777 16.225
    endloop
  endfacet
  facet normal 0.55557 -0.831469 0
    outer loop
      vertex 1.76777 -1.76777 16.6
      vertex 0.956709 -2.3097 16.6
      vertex 1.76777 -1.76777 16.225
    endloop
  endfacet
  facet normal 0.831469 -0.55557 0
    outer loop
      vertex 1.76777 -1.76777 16.6
      vertex 1.76777 -1.76777 16.225
      vertex 2.3097 -0.956709 16.225
    endloop
  endfacet
  facet normal 0.831469 -0.55557 0
    outer loop
      vertex 2.3097 -0.956709 16.6
      vertex 1.76777 -1.76777 16.6
      vertex 2.3097 -0.956709 16.225
    endloop
  endfacet
  facet normal 0.980785 -0.19509 0
    outer loop
      vertex 2.3097 -0.956709 16.6
      vertex 2.3097 -0.956709 16.225
      vertex 2.40054 -0.5 16.225
    endloop
  endfacet
  facet normal 0.980785 -0.19509 0
    outer loop
      vertex 2.40054 -0.5 16.6
      vertex 2.3097 -0.956709 16.6
      vertex 2.40054 -0.5 16.225
    endloop
  endfacet
  facet normal -0.965926 0.258819 0
    outer loop
      vertex 1.74103 -0.5 16.6
      vertex 1.74103 -0.5 12.1
      vertex 1.6238 -0.9375 16.6
    endloop
  endfacet
  facet normal -0.965926 0.258819 0
    outer loop
      vertex 1.875 0 8.8
      vertex 1.74103 -0.5 12.1
      vertex 1.875 0 12.1
    endloop
  endfacet
  facet normal -0.965926 0.258819 -5.18624e-017
    outer loop
      vertex 1.6238 -0.9375 8.8
      vertex 1.74103 -0.5 12.1
      vertex 1.875 0 8.8
    endloop
  endfacet
  facet normal -0.965926 0.258819 0
    outer loop
      vertex 1.6238 -0.9375 16.6
      vertex 1.74103 -0.5 12.1
      vertex 1.6238 -0.9375 8.8
    endloop
  endfacet
  facet normal -0.965926 -0.258819 0
    outer loop
      vertex 1.875 0 12.1
      vertex 1.74103 0.5 12.1
      vertex 1.875 0 8.8
    endloop
  endfacet
  facet normal -0.965926 -0.258819 0
    outer loop
      vertex 1.6238 0.9375 16.6
      vertex 1.74103 0.5 12.1
      vertex 1.74103 0.5 16.6
    endloop
  endfacet
  facet normal -0.965926 -0.258819 -0
    outer loop
      vertex 1.6238 0.9375 8.8
      vertex 1.74103 0.5 12.1
      vertex 1.6238 0.9375 16.6
    endloop
  endfacet
  facet normal -0.965926 -0.258819 -5.85669e-017
    outer loop
      vertex 1.875 0 8.8
      vertex 1.74103 0.5 12.1
      vertex 1.6238 0.9375 8.8
    endloop
  endfacet
  facet normal 0 -0 1
    outer loop
      vertex -2.3097 0.956709 16.6
      vertex -2.40054 0.5 16.6
      vertex -1.74103 0.5 16.6
    endloop
  endfacet
  facet normal 0 0 1
    outer loop
      vertex -0.9375 1.6238 16.6
      vertex -2.3097 0.956709 16.6
      vertex -1.6238 0.9375 16.6
    endloop
  endfacet
  facet normal -0 0 1
    outer loop
      vertex -1.6238 0.9375 16.6
      vertex -2.3097 0.956709 16.6
      vertex -1.74103 0.5 16.6
    endloop
  endfacet
  facet normal 0 0 1
    outer loop
      vertex 0 2.5 16.6
      vertex -2.3097 0.956709 16.6
      vertex -0.9375 1.6238 16.6
    endloop
  endfacet
  facet normal 0 0 1
    outer loop
      vertex 0.956709 2.3097 16.6
      vertex -0.9375 1.6238 16.6
      vertex 0 1.875 16.6
    endloop
  endfacet
  facet normal -0 0 1
    outer loop
      vertex 1.76777 1.76777 16.6
      vertex 0 1.875 16.6
      vertex 0.9375 1.6238 16.6
    endloop
  endfacet
  facet normal 0 0 1
    outer loop
      vertex 2.40054 0.5 16.6
      vertex 0.9375 1.6238 16.6
      vertex 1.6238 0.9375 16.6
    endloop
  endfacet
  facet normal -0 0 1
    outer loop
      vertex 2.40054 0.5 16.6
      vertex 1.6238 0.9375 16.6
      vertex 1.74103 0.5 16.6
    endloop
  endfacet
  facet normal -0 -0 1
    outer loop
      vertex 2.3097 0.956709 16.6
      vertex 0.9375 1.6238 16.6
      vertex 2.40054 0.5 16.6
    endloop
  endfacet
  facet normal 0 -0 1
    outer loop
      vertex 1.76777 1.76777 16.6
      vertex 0.9375 1.6238 16.6
      vertex 2.3097 0.956709 16.6
    endloop
  endfacet
  facet normal 0 -0 1
    outer loop
      vertex 0.956709 2.3097 16.6
      vertex 0 1.875 16.6
      vertex 1.76777 1.76777 16.6
    endloop
  endfacet
  facet normal 0 -0 1
    outer loop
      vertex 0 2.5 16.6
      vertex -0.9375 1.6238 16.6
      vertex 0.956709 2.3097 16.6
    endloop
  endfacet
  facet normal 0 -0 1
    outer loop
      vertex -0.956709 2.3097 16.6
      vertex -2.3097 0.956709 16.6
      vertex 0 2.5 16.6
    endloop
  endfacet
  facet normal 0 -0 1
    outer loop
      vertex -1.76777 1.76777 16.6
      vertex -2.3097 0.956709 16.6
      vertex -0.956709 2.3097 16.6
    endloop
  endfacet
  facet normal 0.980785 0.19509 0
    outer loop
      vertex 2.40054 0.5 16.225
      vertex 2.3097 0.956709 16.225
      vertex 2.3097 0.956709 16.6
    endloop
  endfacet
  facet normal 0.980785 0.19509 -0
    outer loop
      vertex 2.40054 0.5 16.6
      vertex 2.40054 0.5 16.225
      vertex 2.3097 0.956709 16.6
    endloop
  endfacet
  facet normal 0.831469 0.55557 0
    outer loop
      vertex 2.3097 0.956709 16.225
      vertex 1.76777 1.76777 16.225
      vertex 1.76777 1.76777 16.6
    endloop
  endfacet
  facet normal 0.831469 0.55557 -0
    outer loop
      vertex 2.3097 0.956709 16.6
      vertex 2.3097 0.956709 16.225
      vertex 1.76777 1.76777 16.6
    endloop
  endfacet
  facet normal 0.55557 0.831469 0
    outer loop
      vertex 0.956709 2.3097 16.225
      vertex 0.956709 2.3097 16.6
      vertex 1.76777 1.76777 16.225
    endloop
  endfacet
  facet normal 0.55557 0.831469 0
    outer loop
      vertex 1.76777 1.76777 16.225
      vertex 0.956709 2.3097 16.6
      vertex 1.76777 1.76777 16.6
    endloop
  endfacet
  facet normal 0.19509 0.980785 0
    outer loop
      vertex 0 2.5 16.225
      vertex 0 2.5 16.6
      vertex 0.956709 2.3097 16.225
    endloop
  endfacet
  facet normal 0.19509 0.980785 0
    outer loop
      vertex 0.956709 2.3097 16.225
      vertex 0 2.5 16.6
      vertex 0.956709 2.3097 16.6
    endloop
  endfacet
  facet normal -0.19509 0.980785 0
    outer loop
      vertex -0.956709 2.3097 16.225
      vertex -0.956709 2.3097 16.6
      vertex 0 2.5 16.225
    endloop
  endfacet
  facet normal -0.19509 0.980785 0
    outer loop
      vertex 0 2.5 16.225
      vertex -0.956709 2.3097 16.6
      vertex 0 2.5 16.6
    endloop
  endfacet
  facet normal -0.55557 0.831469 0
    outer loop
      vertex -1.76777 1.76777 16.225
      vertex -1.76777 1.76777 16.6
      vertex -0.956709 2.3097 16.225
    endloop
  endfacet
  facet normal -0.55557 0.831469 0
    outer loop
      vertex -0.956709 2.3097 16.225
      vertex -1.76777 1.76777 16.6
      vertex -0.956709 2.3097 16.6
    endloop
  endfacet
  facet normal -0.831469 0.55557 0
    outer loop
      vertex -2.3097 0.956709 16.225
      vertex -2.3097 0.956709 16.6
      vertex -1.76777 1.76777 16.225
    endloop
  endfacet
  facet normal -0.831469 0.55557 0
    outer loop
      vertex -1.76777 1.76777 16.225
      vertex -2.3097 0.956709 16.6
      vertex -1.76777 1.76777 16.6
    endloop
  endfacet
  facet normal -0.980785 0.19509 0
    outer loop
      vertex -2.40054 0.5 16.225
      vertex -2.40054 0.5 16.6
      vertex -2.3097 0.956709 16.225
    endloop
  endfacet
  facet normal -0.980785 0.19509 0
    outer loop
      vertex -2.3097 0.956709 16.225
      vertex -2.40054 0.5 16.6
      vertex -2.3097 0.956709 16.6
    endloop
  endfacet
  facet normal 0.707107 -0.707107 0
    outer loop
      vertex -0.9375 1.6238 8.8
      vertex -0.9375 1.6238 16.6
      vertex -1.6238 0.9375 16.6
    endloop
  endfacet
  facet normal 0.707107 -0.707107 0
    outer loop
      vertex -1.6238 0.9375 8.8
      vertex -0.9375 1.6238 8.8
      vertex -1.6238 0.9375 16.6
    endloop
  endfacet
  facet normal 0 0 1
    outer loop
      vertex -1.6238 0.9375 8.8
      vertex -1.875 0 8.8
      vertex -1.6238 -0.9375 8.8
    endloop
  endfacet
  facet normal 0 0 1
    outer loop
      vertex 0 -1.875 8.8
      vertex -1.6238 0.9375 8.8
      vertex -0.9375 -1.6238 8.8
    endloop
  endfacet
  facet normal 0 0 1
    outer loop
      vertex -0.9375 -1.6238 8.8
      vertex -1.6238 0.9375 8.8
      vertex -1.6238 -0.9375 8.8
    endloop
  endfacet
  facet normal -0 0 1
    outer loop
      vertex 0.9375 -1.6238 8.8
      vertex -1.6238 0.9375 8.8
      vertex 0 -1.875 8.8
    endloop
  endfacet
  facet normal -0 0 1
    outer loop
      vertex 1.6238 -0.9375 8.8
      vertex -1.6238 0.9375 8.8
      vertex 0.9375 -1.6238 8.8
    endloop
  endfacet
  facet normal -0 0 1
    outer loop
      vertex 1.875 0 8.8
      vertex -1.6238 0.9375 8.8
      vertex 1.6238 -0.9375 8.8
    endloop
  endfacet
  facet normal 0 -0 1
    outer loop
      vertex 1.6238 0.9375 8.8
      vertex -1.6238 0.9375 8.8
      vertex 1.875 0 8.8
    endloop
  endfacet
  facet normal 0 -0 1
    outer loop
      vertex 0.9375 1.6238 8.8
      vertex -1.6238 0.9375 8.8
      vertex 1.6238 0.9375 8.8
    endloop
  endfacet
  facet normal 0 -0 1
    outer loop
      vertex 0 1.875 8.8
      vertex -1.6238 0.9375 8.8
      vertex 0.9375 1.6238 8.8
    endloop
  endfacet
  facet normal 0 -0 1
    outer loop
      vertex -0.9375 1.6238 8.8
      vertex -1.6238 0.9375 8.8
      vertex 0 1.875 8.8
    endloop
  endfacet
  facet normal 0.707107 0.707107 -0
    outer loop
      vertex -0.9375 -1.6238 16.6
      vertex -0.9375 -1.6238 8.8
      vertex -1.6238 -0.9375 16.6
    endloop
  endfacet
  facet normal 0.707107 0.707107 -0
    outer loop
      vertex -1.6238 -0.9375 16.6
      vertex -0.9375 -1.6238 8.8
      vertex -1.6238 -0.9375 8.8
    endloop
  endfacet
  facet normal 0.258819 0.965926 -0
    outer loop
      vertex 0 -1.875 16.6
      vertex 0 -1.875 8.8
      vertex -0.9375 -1.6238 16.6
    endloop
  endfacet
  facet normal 0.258819 0.965926 -0
    outer loop
      vertex -0.9375 -1.6238 16.6
      vertex 0 -1.875 8.8
      vertex -0.9375 -1.6238 8.8
    endloop
  endfacet
  facet normal -0.258819 0.965926 0
    outer loop
      vertex 0.9375 -1.6238 16.6
      vertex 0.9375 -1.6238 8.8
      vertex 0 -1.875 16.6
    endloop
  endfacet
  facet normal -0.258819 0.965926 0
    outer loop
      vertex 0 -1.875 16.6
      vertex 0.9375 -1.6238 8.8
      vertex 0 -1.875 8.8
    endloop
  endfacet
  facet normal -0.707107 0.707107 0
    outer loop
      vertex 1.6238 -0.9375 16.6
      vertex 1.6238 -0.9375 8.8
      vertex 0.9375 -1.6238 16.6
    endloop
  endfacet
  facet normal -0.707107 0.707107 0
    outer loop
      vertex 0.9375 -1.6238 16.6
      vertex 1.6238 -0.9375 8.8
      vertex 0.9375 -1.6238 8.8
    endloop
  endfacet
  facet normal -0.707107 -0.707107 -0
    outer loop
      vertex 1.6238 0.9375 8.8
      vertex 1.6238 0.9375 16.6
      vertex 0.9375 1.6238 16.6
    endloop
  endfacet
  facet normal -0.707107 -0.707107 -0
    outer loop
      vertex 0.9375 1.6238 8.8
      vertex 1.6238 0.9375 8.8
      vertex 0.9375 1.6238 16.6
    endloop
  endfacet
  facet normal -0.258819 -0.965926 -0
    outer loop
      vertex 0.9375 1.6238 8.8
      vertex 0.9375 1.6238 16.6
      vertex 0 1.875 16.6
    endloop
  endfacet
  facet normal -0.258819 -0.965926 -0
    outer loop
      vertex 0 1.875 8.8
      vertex 0.9375 1.6238 8.8
      vertex 0 1.875 16.6
    endloop
  endfacet
  facet normal 0.258819 -0.965926 0
    outer loop
      vertex 0 1.875 8.8
      vertex 0 1.875 16.6
      vertex -0.9375 1.6238 16.6
    endloop
  endfacet
  facet normal 0.258819 -0.965926 0
    outer loop
      vertex -0.9375 1.6238 8.8
      vertex 0 1.875 8.8
      vertex -0.9375 1.6238 16.6
    endloop
  endfacet
  facet normal -1 -0 -0
    outer loop
      vertex -2.25 -0.85 4.44089e-016
      vertex -2.25 -0.85 7.9
      vertex -2.25 0.85 4.44089e-016
    endloop
  endfacet
  facet normal -1 0 0
    outer loop
      vertex -2.25 0.85 4.44089e-016
      vertex -2.25 -0.85 7.9
      vertex -2.25 0.85 7.9
    endloop
  endfacet
  facet normal 0 -1 0
    outer loop
      vertex -2.25 -0.85 7.9
      vertex -2.25 -0.85 4.44089e-016
      vertex -0.85 -0.85 4.44089e-016
    endloop
  endfacet
  facet normal 0 -1 0
    outer loop
      vertex -0.85 -0.85 7.9
      vertex -2.25 -0.85 7.9
      vertex -0.85 -0.85 4.44089e-016
    endloop
  endfacet
  facet normal -0 -0 -1
    outer loop
      vertex -2.25 -0.85 4.44089e-016
      vertex -2.25 0.85 4.44089e-016
      vertex -0.85 -0.85 4.44089e-016
    endloop
  endfacet
  facet normal 0 0 -1
    outer loop
      vertex -0.85 -0.85 4.44089e-016
      vertex -2.25 0.85 4.44089e-016
      vertex -0.85 0.85 4.44089e-016
    endloop
  endfacet
  facet normal 0 -0 -1
    outer loop
      vertex -0.85 0.85 4.44089e-016
      vertex -0.85 2.25 4.44089e-016
      vertex 0.85 2.25 4.44089e-016
    endloop
  endfacet
  facet normal -0 0 -1
    outer loop
      vertex -0.85 0.85 4.44089e-016
      vertex 0.85 2.25 4.44089e-016
      vertex -0.85 -0.85 4.44089e-016
    endloop
  endfacet
  facet normal 0 0 -1
    outer loop
      vertex -0.85 -0.85 4.44089e-016
      vertex 0.85 2.25 4.44089e-016
      vertex 0.85 0.85 4.44089e-016
    endloop
  endfacet
  facet normal 0 0 -1
    outer loop
      vertex -0.85 -0.85 4.44089e-016
      vertex 0.85 0.85 4.44089e-016
      vertex 2.25 0.85 4.44089e-016
    endloop
  endfacet
  facet normal -0 0 -1
    outer loop
      vertex 0.85 -0.85 4.44089e-016
      vertex 2.25 0.85 4.44089e-016
      vertex 2.25 -0.85 4.44089e-016
    endloop
  endfacet
  facet normal -0 0 -1
    outer loop
      vertex -0.85 -0.85 4.44089e-016
      vertex 2.25 0.85 4.44089e-016
      vertex 0.85 -0.85 4.44089e-016
    endloop
  endfacet
  facet normal 0 0 -1
    outer loop
      vertex 0.85 -0.85 4.44089e-016
      vertex 0.85 -2.25 4.44089e-016
      vertex -0.85 -0.85 4.44089e-016
    endloop
  endfacet
  facet normal 0 0 -1
    outer loop
      vertex -0.85 -0.85 4.44089e-016
      vertex 0.85 -2.25 4.44089e-016
      vertex -0.85 -2.25 4.44089e-016
    endloop
  endfacet
  facet normal 0 1 0
    outer loop
      vertex -2.25 0.85 4.44089e-016
      vertex -2.25 0.85 7.9
      vertex -0.85 0.85 4.44089e-016
    endloop
  endfacet
  facet normal 0 1 0
    outer loop
      vertex -0.85 0.85 4.44089e-016
      vertex -2.25 0.85 7.9
      vertex -0.85 0.85 7.9
    endloop
  endfacet
  facet normal 0 0 1
    outer loop
      vertex 0.85 -0.85 7.9
      vertex 2.25 -0.85 7.9
      vertex -2.25 0.85 7.9
    endloop
  endfacet
  facet normal 0 -0 1
    outer loop
      vertex -2.25 0.85 7.9
      vertex -2.25 -0.85 7.9
      vertex -0.85 -0.85 7.9
    endloop
  endfacet
  facet normal 0 0 1
    outer loop
      vertex 0.85 -2.25 7.9
      vertex -2.25 0.85 7.9
      vertex -0.85 -0.85 7.9
    endloop
  endfacet
  facet normal 0 0 1
    outer loop
      vertex -0.85 -2.25 7.9
      vertex 0.85 -2.25 7.9
      vertex -0.85 -0.85 7.9
    endloop
  endfacet
  facet normal 0 0 1
    outer loop
      vertex 0.85 -2.25 7.9
      vertex 0.85 -0.85 7.9
      vertex -2.25 0.85 7.9
    endloop
  endfacet
  facet normal 0 0 1
    outer loop
      vertex 2.25 -0.85 7.9
      vertex 0.85 0.85 7.9
      vertex -0.85 0.85 7.9
    endloop
  endfacet
  facet normal 0 0 1
    outer loop
      vertex 2.25 -0.85 7.9
      vertex 2.25 0.85 7.9
      vertex 0.85 0.85 7.9
    endloop
  endfacet
  facet normal 0 0 1
    outer loop
      vertex 2.25 -0.85 7.9
      vertex -0.85 0.85 7.9
      vertex -2.25 0.85 7.9
    endloop
  endfacet
  facet normal -0 0 1
    outer loop
      vertex 0.85 0.85 7.9
      vertex 0.85 2.25 7.9
      vertex -0.85 0.85 7.9
    endloop
  endfacet
  facet normal 0 -0 1
    outer loop
      vertex -0.85 2.25 7.9
      vertex -0.85 0.85 7.9
      vertex 0.85 2.25 7.9
    endloop
  endfacet
  facet normal -1 -0 -0
    outer loop
      vertex -0.85 -2.25 4.44089e-016
      vertex -0.85 -2.25 7.9
      vertex -0.85 -0.85 4.44089e-016
    endloop
  endfacet
  facet normal -1 0 0
    outer loop
      vertex -0.85 -0.85 4.44089e-016
      vertex -0.85 -2.25 7.9
      vertex -0.85 -0.85 7.9
    endloop
  endfacet
  facet normal 0 -1 0
    outer loop
      vertex -0.85 -2.25 7.9
      vertex -0.85 -2.25 4.44089e-016
      vertex 0.85 -2.25 4.44089e-016
    endloop
  endfacet
  facet normal 0 -1 0
    outer loop
      vertex 0.85 -2.25 7.9
      vertex -0.85 -2.25 7.9
      vertex 0.85 -2.25 4.44089e-016
    endloop
  endfacet
  facet normal 1 0 -0
    outer loop
      vertex 0.85 -2.25 7.9
      vertex 0.85 -2.25 4.44089e-016
      vertex 0.85 -0.85 4.44089e-016
    endloop
  endfacet
  facet normal 1 0 0
    outer loop
      vertex 0.85 -0.85 7.9
      vertex 0.85 -2.25 7.9
      vertex 0.85 -0.85 4.44089e-016
    endloop
  endfacet
  facet normal 0 -1 0
    outer loop
      vertex 0.85 -0.85 7.9
      vertex 0.85 -0.85 4.44089e-016
      vertex 2.25 -0.85 4.44089e-016
    endloop
  endfacet
  facet normal 0 -1 0
    outer loop
      vertex 2.25 -0.85 7.9
      vertex 0.85 -0.85 7.9
      vertex 2.25 -0.85 4.44089e-016
    endloop
  endfacet
  facet normal 1 0 -0
    outer loop
      vertex 2.25 -0.85 7.9
      vertex 2.25 -0.85 4.44089e-016
      vertex 2.25 0.85 4.44089e-016
    endloop
  endfacet
  facet normal 1 0 0
    outer loop
      vertex 2.25 0.85 7.9
      vertex 2.25 -0.85 7.9
      vertex 2.25 0.85 4.44089e-016
    endloop
  endfacet
  facet normal 0 1 0
    outer loop
      vertex 0.85 0.85 4.44089e-016
      vertex 0.85 0.85 7.9
      vertex 2.25 0.85 4.44089e-016
    endloop
  endfacet
  facet normal 0 1 0
    outer loop
      vertex 2.25 0.85 4.44089e-016
      vertex 0.85 0.85 7.9
      vertex 2.25 0.85 7.9
    endloop
  endfacet
  facet normal 1 0 -0
    outer loop
      vertex 0.85 0.85 7.9
      vertex 0.85 0.85 4.44089e-016
      vertex 0.85 2.25 4.44089e-016
    endloop
  endfacet
  facet normal 1 0 0
    outer loop
      vertex 0.85 2.25 7.9
      vertex 0.85 0.85 7.9
      vertex 0.85 2.25 4.44089e-016
    endloop
  endfacet
  facet normal 0 1 0
    outer loop
      vertex -0.85 2.25 4.44089e-016
      vertex -0.85 2.25 7.9
      vertex 0.85 2.25 4.44089e-016
    endloop
  endfacet
  facet normal 0 1 0
    outer loop
      vertex 0.85 2.25 4.44089e-016
      vertex -0.85 2.25 7.9
      vertex 0.85 2.25 7.9
    endloop
  endfacet
  facet normal -1 -0 -0
    outer loop
      vertex -0.85 0.85 4.44089e-016
      vertex -0.85 0.85 7.9
      vertex -0.85 2.25 4.44089e-016
    endloop
  endfacet
  facet normal -1 0 0
    outer loop
      vertex -0.85 2.25 4.44089e-016
      vertex -0.85 0.85 7.9
      vertex -0.85 2.25 7.9
    endloop
  endfacet
endsolid OpenSCAD_Model
